C:\My Captures\DataSMARTClinic\0004~001 ID\0004~aa~STRATO_01\W2_STRATO_ID_01.mot
version=1
nRows=23
nColumns=19
inDegrees=yes

BTS OpenSim export

endheader
time	r.gr_force_vx	r.gr_force_vy	r.gr_force_vz	r.gr_force_px	r.gr_force_py	r.gr_force_pz	l.gr_force_vx	l.gr_force_vy	l.gr_force_vz	l.gr_force_px	l.gr_force_py	l.gr_force_pz	r.gr_torque_x	r.gr_torque_y	r.gr_torque_z	l.gr_torque_x	l.gr_torque_y	l.gr_torque_z
4.936000	90.01666260	271.37719727	-2.27871847	0.37241280	-0.00036858	0.28378889	-83.44599915	427.65347290	30.92096519	0.81978106	0.00187899	0.18436009	-0.00532269	1.07388496	0.00032612	0.00434058	-0.87573797	-0.00026595
4.940000	85.87071991	242.91772461	0.42961252	0.37210575	-0.00036972	0.28253281	-86.73131561	441.26544189	32.55939484	0.82233036	0.00189166	0.18424119	-0.00554698	1.11913753	0.00033986	0.00367286	-0.74102139	-0.00022504
4.944000	80.13305664	209.93962097	3.14685154	0.37487930	-0.00035618	0.28322637	-90.02649689	452.77166748	30.96934509	0.82378340	0.00189874	0.18464142	-0.00425676	0.85882699	0.00026081	0.00316461	-0.63847935	-0.00019390
4.948000	72.22532654	177.22280884	3.18770194	0.37710431	-0.00034567	0.28493741	-93.33078003	466.11138916	29.37972832	0.82559824	0.00190757	0.18518393	-0.00313842	0.63319457	0.00019229	0.00254986	-0.51444876	-0.00015623
4.952000	64.30305481	146.09989929	2.15300703	0.38035938	-0.00032997	0.28635496	-94.48844147	482.60342407	29.39150810	0.82700920	0.00191451	0.18535553	0.00099909	-0.20157278	-0.00006121	0.00270782	-0.54631895	-0.00016591
4.956000	54.23355484	117.38664246	3.82259846	0.38239658	-0.00031937	0.28471085	-94.58072662	501.19799805	29.39703369	0.82839036	0.00192139	0.18524633	0.00009618	-0.01940453	-0.00000589	0.00202410	-0.40837541	-0.00012402
4.960000	41.97508240	93.40924072	3.35523605	0.38222528	-0.00031918	0.28127661	-93.04344940	518.75061035	31.00618744	0.82960665	0.00192739	0.18534353	-0.00088151	0.17785098	0.00005401	0.00226890	-0.45776373	-0.00013902
4.964000	28.63602829	68.32398987	1.28032672	0.38732284	-0.00029429	0.28250653	-91.50746155	534.46630859	31.00080299	0.83038336	0.00193118	0.18554890	0.00021464	-0.04330454	-0.00001315	0.00234922	-0.47396842	-0.00014394
4.968000	3.41789842	50.59394455	-1.79389143	0.39756313	-0.00024586	0.29018396	-88.88236237	547.56872559	30.98785400	0.83134723	0.00193583	0.18597038	0.00196966	-0.39739004	-0.00012068	0.00168240	-0.33943531	-0.00010308
4.972000	3.49067116	34.52104950	-2.87480021	0.42607594	-0.00010838	0.30284902	-92.18946838	563.52838135	31.01313591	0.83224094	0.00194027	0.18592575	0.00261774	-0.52814436	-0.00016039	0.00131781	-0.26587561	-0.00008074
4.976000	1.35219657	31.14173317	-3.40023756	0.40864682	-0.00019231	0.29475060	-87.41104889	577.69848633	32.06287384	0.83355355	0.00194682	0.18579242	0.00315984	-0.63751680	-0.00019360	0.00239402	-0.48300865	-0.00014668
4.980000	-1.34011424	30.91632843	-3.92132998	0.38191661	-0.00031927	0.27652764	-88.56142426	593.40368652	32.61236954	0.83428597	0.00195039	0.18598101	0.00301182	-0.60765344	-0.00018453	0.00175735	-0.35455590	-0.00010767
4.984000	0.00000000	0.00000000	0.00000000	0.00000000	0.00000000	0.00000000	-85.40802765	609.13940430	33.13478470	0.83558762	0.00195692	0.18573628	0.00000000	0.00000000	0.00000000	0.00169744	-0.34246790	-0.00010400
4.988000	0.00000000	0.00000000	0.00000000	0.00000000	0.00000000	0.00000000	-84.38805389	622.49908447	34.74605179	0.83640444	0.00196090	0.18596177	0.00000000	0.00000000	0.00000000	0.00062394	-0.12588415	-0.00003823
4.992000	0.00000000	0.00000000	0.00000000	0.00000000	0.00000000	0.00000000	-82.80595398	628.25299072	34.19969177	0.83902359	0.00197355	0.18704422	0.00000000	0.00000000	0.00000000	0.00005899	-0.01190225	-0.00000361
4.996000	0.00000000	0.00000000	0.00000000	0.00000000	0.00000000	0.00000000	-81.77349854	638.38806152	35.27202606	0.83927047	0.00197474	0.18715718	0.00000000	0.00000000	0.00000000	0.00019166	-0.03866773	-0.00001174
5.000000	0.00000000	0.00000000	0.00000000	0.00000000	0.00000000	0.00000000	-80.19330597	647.25744629	36.87842178	0.84100425	0.00198337	0.18704005	0.00000000	0.00000000	0.00000000	-0.00001688	0.00340531	0.00000103
5.004000	0.00000000	0.00000000	0.00000000	0.00000000	0.00000000	0.00000000	-78.61521149	655.84320068	37.94689941	0.84151351	0.00198595	0.18684477	0.00000000	0.00000000	0.00000000	0.00056293	-0.11357514	-0.00003449
5.008000	0.00000000	0.00000000	0.00000000	0.00000000	0.00000000	0.00000000	-76.50269318	663.14398193	37.39749908	0.84284890	0.00199256	0.18688367	0.00000000	0.00000000	0.00000000	0.00014499	-0.02925309	-0.00000888
5.012000	0.00000000	0.00000000	0.00000000	0.00000000	0.00000000	0.00000000	-74.88809967	665.75531006	39.54019165	0.84354049	0.00199602	0.18676478	0.00000000	0.00000000	0.00000000	0.00093190	-0.18801728	-0.00005710
5.016000	0.00000000	0.00000000	0.00000000	0.00000000	0.00000000	0.00000000	-72.22444153	669.68884277	38.44855118	0.84467757	0.00200166	0.18675810	0.00000000	0.00000000	0.00000000	0.00064480	-0.13009323	-0.00003951
5.020000	0.00000000	0.00000000	0.00000000	0.00000000	0.00000000	0.00000000	-70.61151886	671.27246094	39.51478195	0.84568089	0.00200665	0.18670067	0.00000000	0.00000000	0.00000000	0.00104883	-0.21160688	-0.00006426
5.024000	0.00000000	0.00000000	0.00000000	0.00000000	0.00000000	0.00000000	-67.92355347	672.34954834	40.03613281	0.84687883	0.00201258	0.18673611	0.00000000	0.00000000	0.00000000	0.00044421	-0.08962224	-0.00002722
